<svg width="48" height="48" viewBox="0 0 48 48" fill="none" xmlns="http://www.w3.org/2000/svg">
<mask id="mask0_668_1201" style="mask-type:alpha" maskUnits="userSpaceOnUse" x="0" y="0" width="48" height="48">
<rect width="48" height="48" fill="#D9D9D9"/>
</mask>
<g mask="url(#mask0_668_1201)">
<path d="M11.1 35.25C13.2 33.9167 15.275 32.9083 17.325 32.225C19.375 31.5417 21.6 31.2 24 31.2C26.4 31.2 28.6333 31.5417 30.7 32.225C32.7667 32.9083 34.85 33.9167 36.95 35.25C38.4167 33.45 39.4583 31.6333 40.075 29.8C40.6917 27.9667 41 26.0333 41 24C41 19.1667 39.375 15.125 36.125 11.875C32.875 8.625 28.8333 7 24 7C19.1667 7 15.125 8.625 11.875 11.875C8.625 15.125 7 19.1667 7 24C7 26.0333 7.31667 27.9667 7.95 29.8C8.58333 31.6333 9.63333 33.45 11.1 35.25ZM23.9907 25.5C22.0636 25.5 20.4417 24.8386 19.125 23.5157C17.8083 22.1928 17.15 20.5678 17.15 18.6407C17.15 16.7136 17.8114 15.0917 19.1343 13.775C20.4572 12.4583 22.0822 11.8 24.0093 11.8C25.9364 11.8 27.5583 12.4614 28.875 13.7843C30.1917 15.1072 30.85 16.7322 30.85 18.6593C30.85 20.5864 30.1886 22.2083 28.8657 23.525C27.5428 24.8417 25.9178 25.5 23.9907 25.5ZM23.9797 44C21.2082 44 18.6036 43.475 16.166 42.425C13.7284 41.375 11.608 39.9417 9.80475 38.125C8.00158 36.3083 6.58333 34.186 5.55 31.7579C4.51667 29.33 4 26.7356 4 23.975C4 21.2144 4.525 18.6201 5.575 16.192C6.625 13.764 8.05833 11.65 9.875 9.85C11.6917 8.05 13.814 6.625 16.2421 5.575C18.6701 4.525 21.2644 4 24.025 4C26.7856 4 29.38 4.525 31.808 5.575C34.236 6.625 36.35 8.05 38.15 9.85C39.95 11.65 41.375 13.7667 42.425 16.2C43.475 18.6333 44 21.2289 44 23.9867C44 26.7445 43.475 29.3362 42.425 31.7617C41.375 34.1872 39.95 36.3083 38.15 38.125C36.35 39.9417 34.2312 41.375 31.7935 42.425C29.3559 43.475 26.7513 44 23.9797 44Z" fill="#535461"/>
</g>
</svg>
